<?xml version="1.0" standalone="no"?><!DOCTYPE svg PUBLIC "-//W3C//DTD SVG 1.1//EN" "http://www.w3.org/Graphics/SVG/1.1/DTD/svg11.dtd"><svg t="1673884399186" class="icon" viewBox="0 0 1024 1024" version="1.1" xmlns="http://www.w3.org/2000/svg" p-id="16618" xmlns:xlink="http://www.w3.org/1999/xlink" width="200" height="200"><path d="M384 722.338462c35.323077-3.076923 69.415385-10.830769 100.184615-23.015385 41.230769-16.369231 75.569231-40.492308 98.953846-69.661538l0.492308-0.615385c44.923077-59.938462 52.307692-171.323077 22.153846-331.076923-21.784615-115.692308-55.261538-213.538462-56.738462-217.6l-5.292308-15.384615L167.384615 64.984615 161.969231 80c-1.476923 4.184615-37.661538 104.861538-61.907692 222.153846C85.784615 371.692308 78.646154 432.369231 79.015385 482.707692c0.492308 66.338462 14.276923 115.938462 40.861538 147.323077 26.830769 31.630769 62.769231 56 106.707692 72.246154 28.307692 10.461538 59.446154 17.230769 91.569231 20.061538L318.153846 894.769231 181.169231 894.769231l0 64.369231 325.046154 0L506.215385 894.769231 384 894.769231 384 722.338462zM167.015385 587.815385c-18.338462-21.538462-27.815385-58.830769-28.184615-110.892308-0.369231-44.184615 6.030769-98.092308 18.830769-160.369231 17.107692-82.584615 41.230769-157.907692 51.446154-188.307692l0 0 291.815385 0c9.6 30.030769 31.630769 102.892308 46.892308 183.630769 11.569231 61.415385 16.984615 115.2 16.123077 160-0.984615 52.923077-10.707692 92.184615-28.923077 116.676923-34.953846 43.2-103.630769 70.769231-179.323077 72C277.169231 661.661538 206.646154 634.461538 167.015385 587.815385z" p-id="16619" fill="#976b8a"></path><path d="M925.415385 306.461538c-22.4-118.276923-55.630769-221.415385-56.984615-225.723077l-5.169231-15.876923-270.523077 0 8.738462 29.415385c0.369231 1.230769 36.307692 123.2 52.430769 257.476923 9.353846 78.030769 15.261538 145.723077 2.707692 198.153846-14.646154 61.415385-21.292308 72.492308-38.4 100.676923-8.123077 13.292308-18.707692 24.861538-31.138462 34.092308l-37.661538 27.815385 56.861538 7.630769c17.107692 2.338462 34.461538 3.446154 51.938462 3.692308l0 171.076923-123.076923 0 0 64.369231 311.015385 0L846.153846 894.769231l-122.092308 0L724.061538 719.384615c17.230769-2.461538 34.215385-6.030769 50.461538-10.584615 56.615385-15.876923 102.523077-43.076923 132.676923-78.646154 25.107692-29.415385 37.415385-76.307692 37.784615-143.015385C945.230769 437.292308 938.707692 376.615385 925.415385 306.461538zM853.538462 587.938462c-19.076923 26.830769-51.569231 43.938462-89.230769 56.615385-25.353846 8.492308-50.707692 16.492308-78.276923 16.246154 35.569231-61.046154 46.153846-165.415385 31.384615-311.507692-9.476923-93.538462-26.707692-178.953846-36.184615-221.292308l138.830769 0c8 31.384615 26.707692 108.307692 39.876923 191.876923C881.6 456.492308 879.384615 551.753846 853.538462 587.938462z" p-id="16620" fill="#976b8a"></path></svg>